<?xml version="1.0" encoding="utf-8"?>
<!-- Generator: Adobe Illustrator 15.0.0, SVG Export Plug-In . SVG Version: 6.00 Build 0)  -->
<!DOCTYPE svg PUBLIC "-//W3C//DTD SVG 1.1//EN" "http://www.w3.org/Graphics/SVG/1.1/DTD/svg11.dtd">
<svg version="1.1" id="Layer_1" xmlns="http://www.w3.org/2000/svg" xmlns:xlink="http://www.w3.org/1999/xlink" x="0px" y="0px"
	 width="547px" height="286px" viewBox="0 0 547 286" enable-background="new 0 0 547 286" xml:space="preserve">
<g id="Layer_5">
	<text transform="matrix(1 0 0 1 118.1582 256)" fill="#737373" font-family="'ACaslonPro-Regular'" font-size="150">Lena</text>
	<path opacity="0.73" fill="#4CB86D" stroke="#47C54D" stroke-miterlimit="10" enable-background="new    " d="M519.658,38v11
		c0,0-17.75-0.5-23.75,32c-7.521,40.738-26.375,97.071-87.906,97.071c-111.969,0-103.406-107.404-135.238-107.404
		c-35.105,0-27.605,114.833-135.605,114.833c-64.5,0-89.591-53.828-95.857-94.574C36.158,57.5,18.658,62,18.658,62V45
		c0,0,91.502-22.906,116.611-22.906c119.973,0,98.82,27.909,134.264,29.906c35.5,2,22.199-39,132.312-39
		C445.18,13,519.658,38,519.658,38z M143.658,33c-59.5,0-88,17.5-88,54.5c0,52.436,30.5,87.21,82.584,87.21
		c69.916,0,104.916-74.112,104.916-105.71C243.158,48.5,199.658,33,143.658,33z M390.158,23c-51.252,0-94,20.5-94,38.5
		c0,28.01,32.5,108,113,108c52,0,76.5-59.5,75.5-101C483.875,36.01,469.406,23,390.158,23z"/>
</g>
</svg>
